# xmcd
#
# Track frame offsets: 
#        150
#        14714
#        33614
#        48578
#        62133
#        81654
#        97970
#        114533
#        132810
#        150640
#        168846
#        184539
#
# Disc length: 2668 seconds
#
# Revision: 0
# Processed by: cddbd v1.5.2PL0 Copyright (c) Steve Scherf et al.
# Submitted via: ExactAudioCopy v1.3
#
DISCID=9e0a6a0c
DTITLE=Sara Evans - The Early Year
DYEAR=2007
DGENRE=Country
TTITLE0=Love's Not Blind
TTITLE1=The Way Things Were Done
TTITLE2=You're Gonna Go
TTITLE3=You've Never Seen My Face
TTITLE4=All The Way To Heaven
TTITLE5=I'm Not Gonna Fall
TTITLE6=Love Is The OnlyThing That You Need
TTITLE7=Until He Comes Back Home
TTITLE8=Heart Of Stone
TTITLE9=Another Day
TTITLE10=Saying Goodbye
TTITLE11=Here Come That Old Heartache
EXTD=
EXTT0=
EXTT1=
EXTT2=
EXTT3=
EXTT4=
EXTT5=
EXTT6=
EXTT7=
EXTT8=
EXTT9=
EXTT10=
EXTT11=
PLAYORDER=
